<svg width="19" height="14" viewBox="0 0 19 14" fill="none" xmlns="http://www.w3.org/2000/svg">
<mask id="mask0" mask-type="alpha" maskUnits="userSpaceOnUse" x="0" y="0" width="19" height="6">
<path fill-rule="evenodd" clip-rule="evenodd" d="M6.8819 0L6.89703 0.000655781C7.23281 0.0250409 10.524 0.724031 10.8139 1.18165L10.8485 1.23521C11.1202 1.6452 11.2583 1.61806 11.403 1.72545L11.4168 1.73564C11.5483 1.83155 11.4806 1.7528 12.1415 1.89906L12.2502 1.92333C13.8404 2.28273 13.6445 2.42976 14.8861 2.65392L14.9151 2.6577C15.1912 2.68146 15.8733 2.43232 16.525 2.18271L16.5934 2.15648C17.2539 1.90309 17.8678 1.65963 17.9759 1.71357L17.9839 1.71956C18.0829 1.8168 18.1496 2.76649 17.7562 3.39484L17.7195 3.45904C17.4346 4.00846 17.9343 4.48405 17.8247 5.13285L1.11897 5.13317C1.12972 5.11737 1.13555 5.10167 1.13555 5.08619L1.13188 5.06549C1.06165 4.86027 0.00821503 4.51216 0.00821503 4.51216C0.00246058 4.47835 -0.140601 3.56552 1.04572 2.65392L1.15478 2.57086C2.30944 1.6991 3.18965 1.28317 4.1752 1.23331L4.26069 1.22901C5.211 1.18165 5.53234 1.18165 5.53234 1.18165C5.53234 1.18165 6.41708 0 6.8819 0Z" fill="white"/>
</mask>
<g mask="url(#mask0)">
<path fill-rule="evenodd" clip-rule="evenodd" d="M-0.476074 5.13322H18.0433V0H-0.476074V5.13322Z" fill="#FF7698"/>
</g>
<mask id="mask1" mask-type="alpha" maskUnits="userSpaceOnUse" x="0" y="4" width="18" height="4">
<path fill-rule="evenodd" clip-rule="evenodd" d="M17.789 4.55664C17.8498 4.80596 17.8783 5.07376 17.7539 5.38145L17.7269 5.45433C17.4684 6.22552 18.1237 6.79664 17.9761 7.06168L17.9671 7.07354C17.85 7.19249 17.1187 6.93397 16.391 6.67521L16.3186 6.64947C15.6914 6.4267 15.0822 6.21346 14.8863 6.25127L14.8633 6.25601C14.4522 6.3462 13.3403 6.85189 11.2079 7.24045L11.2596 7.26883C11.3099 7.29473 11.356 7.31537 11.4032 7.35024L11.4171 7.36043C11.5011 7.42175 11.5038 7.41168 11.6674 7.43458L8.36802 7.53263H7.13858L2.83901 7.17068C2.94288 7.12703 3.04593 7.08806 3.14864 7.05367L3.09523 7.04559C2.42526 6.93269 0.729256 6.25179 0.148682 5.52638L0.152369 5.52547C0.21793 5.50937 1.13579 5.28047 1.13579 5.08617L1.135 5.08152H11.0366V4.55683" fill="white"/>
</mask>
<g mask="url(#mask1)">
<path fill-rule="evenodd" clip-rule="evenodd" d="M15.9421 7.53265L18.0599 7.24538L18.108 6.57266V5.08151L17.9429 4.55682H11.0364V5.08151H0.00744629V6.57266L1.49672 7.05834L7.13834 7.53265H8.36778" fill="#FEC1EE"/>
</g>
<mask id="mask2" mask-type="alpha" maskUnits="userSpaceOnUse" x="0" y="6" width="19" height="5">
<path fill-rule="evenodd" clip-rule="evenodd" d="M13.5608 6.57269L13.5612 6.6734C12.9778 6.85178 12.2041 7.05893 11.2077 7.2405L11.2594 7.26888C11.3096 7.29478 11.3558 7.31542 11.403 7.3503L11.4168 7.36048C11.5483 7.4564 11.4806 7.37764 12.1415 7.52364L12.2502 7.54794C13.8404 7.90756 13.6445 8.05435 14.8861 8.27877L14.9151 8.28254C15.1912 8.30628 15.8733 8.05692 16.525 7.80756L16.5934 7.78132C17.2539 7.52792 17.8678 7.28421 17.9759 7.33815L17.9839 7.34417C18.0829 7.44165 18.1496 8.39134 17.7562 9.01969L17.7195 9.08386C17.5208 9.46682 17.7037 9.81398 17.7954 10.2091L8.60019 10.2093V10.7353L1.13095 10.7351C1.13397 10.7269 1.13555 10.7188 1.13555 10.7108L1.13188 10.6901C1.06165 10.4849 0.00821503 10.137 0.00821503 10.137C0.00246058 10.1032 -0.140601 9.19036 1.04572 8.27877L1.16364 8.18904C1.90444 7.63064 2.53267 7.25988 3.14841 7.05372L3.13639 7.05786L7.13834 7.0886V6.57269H13.5608Z" fill="white"/>
</mask>
<g mask="url(#mask2)">
<path fill-rule="evenodd" clip-rule="evenodd" d="M7.13822 6.57269H13.5607V7.25703L18.1669 7.24489V10.2093H8.60007V10.7353H0.00732422V7.24489L2.68686 7.0545L7.13822 7.0886V6.57269Z" fill="#2800FF"/>
</g>
<mask id="mask3" mask-type="alpha" maskUnits="userSpaceOnUse" x="6" y="2" width="10" height="5">
<path fill-rule="evenodd" clip-rule="evenodd" d="M6.6013 2.17212L6.60565 2.17225L6.61018 2.17238L6.61563 2.17266C6.61903 2.17284 6.62486 2.17315 6.63943 2.17393L6.66512 2.17511C6.68301 2.17599 6.70245 2.17703 6.72352 2.17806L6.79289 2.18149C6.86422 2.18505 6.94124 2.18898 7.02252 2.19304L7.25391 2.20494C7.48467 2.21691 7.71265 2.22902 7.92946 2.24084L8.02867 2.24632C8.09392 2.24999 8.15734 2.25367 8.2188 2.25711L8.31487 2.26267C8.53444 2.27549 8.72149 2.28724 8.86956 2.29741L8.98724 2.30625C9.63242 2.35886 10.548 2.49713 11.26 2.63791L11.3803 2.66222C12.4964 2.89294 13.4327 3.23176 14.8791 3.86631L14.9018 3.87626C15.0365 3.9354 15.38 4.08665 15.3881 4.09029L15.4118 4.10283C15.4945 4.15452 15.5319 4.26708 15.496 4.36749L15.4847 4.39369C15.4382 4.48531 15.3363 4.52714 15.2458 4.48736L15.2404 4.48492C15.1921 4.46336 14.8435 4.30982 14.7376 4.26338L14.5868 4.19752C13.1968 3.59314 12.2922 3.27522 11.1924 3.05797L11.059 3.03212C10.3359 2.89459 9.43933 2.76426 8.84553 2.72342L8.78023 2.71898C8.62245 2.70847 8.42702 2.69674 8.19921 2.68363L8.10575 2.67838C8.04244 2.67482 7.97716 2.67115 7.91013 2.66736L7.69045 2.65535C7.4676 2.64335 7.2362 2.63138 7.0045 2.61956L6.95652 2.61711L6.90971 2.61466L6.95038 2.7239L6.98988 2.83683L7.0338 2.97007C7.08964 3.14696 7.13439 3.32044 7.1651 3.48681L7.17889 3.56669C7.18733 3.61945 7.19418 3.67118 7.19905 3.72164L7.20338 3.77618C7.21743 4.01949 7.17044 4.35317 7.07684 4.76482L7.04188 4.91379C7.01741 5.01455 6.99066 5.11805 6.96194 5.22363L6.92209 5.36747C6.88164 5.51048 6.83953 5.65066 6.79742 5.78474L6.77846 5.84551C6.76608 5.88466 6.75424 5.92106 6.7431 5.95447L6.73514 5.97908L6.72796 6.00097L6.7245 6.01098L6.72221 6.01751L6.71138 6.04398C6.66637 6.1367 6.56509 6.18041 6.47413 6.14229L6.45024 6.1303C6.36659 6.0805 6.32711 5.96853 6.36158 5.86741L6.36328 5.86189L6.36654 5.85269L6.37323 5.83225L6.3809 5.80851L6.39735 5.75818C6.40867 5.72314 6.42068 5.6852 6.43339 5.64472L6.47422 5.51266C6.5149 5.37888 6.55495 5.24029 6.59295 5.1004L6.62324 4.98709C6.65267 4.87481 6.67945 4.76572 6.70315 4.66071L6.72052 4.58256C6.79851 4.22318 6.83351 3.9387 6.81596 3.76943L6.80857 3.70582C6.8029 3.66268 6.79577 3.61813 6.78723 3.57232L6.76456 3.46073C6.73112 3.30978 6.68508 3.15056 6.62951 2.9877L6.59618 2.89254C6.56228 2.79859 6.52688 2.7085 6.49163 2.62421L6.4758 2.58641C6.46551 2.56218 6.45576 2.53991 6.44671 2.51959L6.43955 2.50381C6.43539 2.49464 6.43243 2.48815 6.43052 2.48419C6.36341 2.34133 6.45768 2.17212 6.6013 2.17212Z" fill="white"/>
</mask>
<g mask="url(#mask3)">
<path fill-rule="evenodd" clip-rule="evenodd" d="M6.12 6.39723H15.7314V1.97162H6.12V6.39723Z" fill="#5A78FF"/>
</g>
<mask id="mask4" mask-type="alpha" maskUnits="userSpaceOnUse" x="6" y="2" width="10" height="4">
<path fill-rule="evenodd" clip-rule="evenodd" d="M6.61042 2.1579L6.61304 2.15816C6.61636 2.15847 6.62024 2.15867 6.63967 2.15971L6.66536 2.16089C6.68325 2.16177 6.70269 2.16281 6.72376 2.16384L6.79313 2.16731C6.86446 2.17094 6.94148 2.17501 7.02276 2.17908L7.25415 2.19103C7.48491 2.20308 7.71289 2.21538 7.9297 2.22739L8.02891 2.23306C8.09416 2.23681 8.15758 2.24048 8.21904 2.24393L8.31511 2.24957C8.53468 2.26256 8.72173 2.27434 8.8698 2.28474L8.98748 2.29373C9.63266 2.34718 10.5482 2.48714 11.2603 2.62963L11.3806 2.65424C12.4967 2.88785 13.4329 3.23151 14.8794 3.87405L14.9021 3.88411C15.0367 3.94392 15.3802 4.09722 15.3883 4.10087L15.412 4.11356C15.4947 4.16587 15.5321 4.27986 15.4962 4.38169L15.4849 4.40819C15.4384 4.50087 15.3365 4.54311 15.246 4.50285L15.2406 4.50047C15.1924 4.47906 14.8438 4.3232 14.7379 4.27603L14.587 4.20933C13.197 3.59724 12.2924 3.27537 11.1926 3.05537L11.0592 3.02916C10.3362 2.88972 9.43957 2.75775 8.84577 2.71617L8.78047 2.71173C8.62269 2.70116 8.42726 2.68924 8.19945 2.67613L8.10599 2.67064C8.04268 2.66694 7.9774 2.66321 7.91037 2.65959L7.69068 2.6475C7.46784 2.63534 7.23644 2.62304 7.00474 2.61103L6.95676 2.6087L6.90995 2.60638L6.95062 2.71691L6.99012 2.83113L7.03404 2.96618C7.08988 3.14541 7.13463 3.321 7.16534 3.48964L7.17913 3.57043C7.18757 3.62375 7.19442 3.67599 7.19929 3.72731L7.20362 3.78259C7.21767 4.02919 7.17068 4.36724 7.07708 4.78392L7.05517 4.87965C7.04008 4.94406 7.02407 5.00962 7.00735 5.0761H6.60598L6.64093 4.94019C6.66346 4.85063 6.68441 4.76325 6.70339 4.67852L6.72076 4.59936C6.79875 4.23535 6.83375 3.94756 6.8162 3.77588L6.80881 3.71148C6.80314 3.66781 6.796 3.62268 6.78747 3.57618L6.7648 3.46304C6.73136 3.31002 6.68532 3.14873 6.62975 2.98381L6.59641 2.88749C6.56252 2.7924 6.52712 2.70119 6.49187 2.61593L6.47604 2.57757C6.46575 2.55296 6.456 2.53034 6.44695 2.51002L6.43979 2.49393C6.43563 2.48455 6.43267 2.4779 6.43076 2.47411C6.36365 2.32918 6.45792 2.15764 6.60154 2.1579H6.61042Z" fill="white"/>
</mask>
<g mask="url(#mask4)">
<path fill-rule="evenodd" clip-rule="evenodd" d="M6.20837 5.29801H15.7313V1.92487H6.20837V5.29801Z" fill="#2800FF"/>
</g>
<mask id="mask5" mask-type="alpha" maskUnits="userSpaceOnUse" x="5" y="2" width="2" height="4">
<path fill-rule="evenodd" clip-rule="evenodd" d="M5.58099 2.39276L5.60547 2.39458C5.65403 2.40185 5.69944 2.4307 5.72854 2.47853L5.7402 2.49775C5.75745 2.52666 5.78139 2.56854 5.81001 2.62165L5.85461 2.70618C5.89908 2.79245 5.943 2.8838 5.98472 2.97893L6.03201 3.09074C6.10753 3.27651 6.16625 3.4591 6.20303 3.63434L6.21816 3.7129C6.23614 3.81655 6.24534 3.91588 6.24534 4.01074L6.24293 4.11201C6.23018 4.38336 6.1674 4.66469 6.07037 4.94438L6.04148 5.02451C6.01215 5.10313 5.98165 5.17715 5.95129 5.24535L5.93705 5.27671C5.91895 5.31607 5.9045 5.34559 5.89489 5.36419L5.88036 5.38778C5.82741 5.46137 5.7312 5.48399 5.65333 5.43678L5.6315 5.42108C5.56338 5.36387 5.54254 5.25993 5.58622 5.17586L5.59797 5.15261L5.60852 5.13029C5.61593 5.11466 5.624 5.09749 5.63218 5.07872L5.65933 5.01632C5.68638 4.95221 5.71307 4.88309 5.73872 4.81005L5.76906 4.71834C5.84604 4.4741 5.89123 4.23303 5.89123 4.01074L5.88985 3.95673C5.88619 3.88318 5.87525 3.80361 5.85728 3.71908L5.83606 3.62791C5.79673 3.47393 5.7379 3.31021 5.66456 3.14272L5.6257 3.05677C5.58625 2.97193 5.54522 2.89065 5.50448 2.81489L5.4857 2.78105C5.47355 2.75935 5.46217 2.73937 5.45173 2.72111L5.44357 2.70709C5.43879 2.69892 5.43536 2.69312 5.43345 2.68985L5.42058 2.66513C5.38392 2.58065 5.40904 2.47761 5.48359 2.42454C5.51362 2.40284 5.54757 2.39276 5.58099 2.39276Z" fill="white"/>
</mask>
<g mask="url(#mask5)">
<path fill-rule="evenodd" clip-rule="evenodd" d="M5.18994 5.69645H6.47448V2.19104H5.18994V5.69645Z" fill="#5A78FF"/>
</g>
<mask id="mask6" mask-type="alpha" maskUnits="userSpaceOnUse" x="0" y="0" width="19" height="14">
<path fill-rule="evenodd" clip-rule="evenodd" d="M5.53242 1.18165C5.53242 1.18165 5.19189 1.18165 4.17528 1.23331C3.15893 1.28472 2.25461 1.72545 1.0458 2.65392C-0.162489 3.5824 0.00829512 4.51216 0.00829512 4.51216C0.00829512 4.51216 1.13563 4.88469 1.13563 5.08619C1.13563 5.2877 0.148526 5.5264 0.148526 5.5264C0.745228 6.27197 2.52019 6.97052 3.14849 7.05371C2.50034 7.27071 1.83835 7.67011 1.0458 8.27876C-0.162489 9.20723 0.00829512 10.137 0.00829512 10.137C0.00829512 10.137 1.13563 10.5093 1.13563 10.7108C1.13563 10.9123 0.148526 11.151 0.148526 11.151C0.784399 11.9456 2.75756 12.6868 3.25634 12.6868C3.75485 12.6868 4.09668 12.7008 4.75057 12.5747C4.75684 12.5693 4.79 12.5726 4.84719 12.5832C4.82787 12.5995 4.81821 12.609 4.81821 12.609C4.81821 12.609 5.28695 13.6793 6.30043 13.8922C7.1708 14.0746 7.70744 13.9772 7.84167 13.946C8.20413 13.9413 8.3958 13.884 8.3958 13.884C8.3958 13.884 8.44072 13.497 8.254 13.0883C8.94289 13.1213 9.67616 13.1053 10.3987 12.9984C13.1104 12.5966 14.4482 11.9604 14.8861 11.8759C15.0896 11.8369 15.7388 12.0683 16.3908 12.2998C17.1405 12.5667 17.8942 12.8333 17.9759 12.6868C18.1282 12.4132 17.4265 11.8144 17.7537 11.0063C18.0806 10.198 17.3521 9.66501 17.7563 9.01967C18.1603 8.37434 18.0791 7.39007 17.9759 7.33814C17.8642 7.28234 17.2111 7.54507 16.525 7.80754C15.8492 8.06614 15.1407 8.32474 14.8861 8.27876C13.617 8.04935 13.8499 7.90106 12.1416 7.52363C11.4587 7.37276 11.5538 7.46188 11.4031 7.35028C11.3401 7.30378 11.279 7.2826 11.2077 7.24049C13.3812 6.84445 14.4944 6.32674 14.8861 6.2513C15.0896 6.21204 15.7388 6.44351 16.3908 6.67524C17.1405 6.94185 17.8942 7.2082 17.9759 7.06172C18.1282 6.78839 17.4265 6.18956 17.7537 5.38147C18.0806 4.57339 17.3521 4.04043 17.7563 3.39484C18.1603 2.74951 18.0791 1.76524 17.9759 1.71357C17.8642 1.65777 17.2111 1.92024 16.525 2.18271C15.8492 2.44157 15.1407 2.69991 14.8861 2.65392C13.617 2.42478 13.8499 2.27623 12.1416 1.89906C11.4587 1.74793 11.5538 1.83705 11.4031 1.72545C11.2524 1.61359 11.1088 1.64769 10.8139 1.18165C10.5189 0.715859 7.1144 0 6.88198 0C6.41716 0 5.53242 1.18165 5.53242 1.18165Z" fill="white"/>
</mask>
<g mask="url(#mask6)">
<path fill-rule="evenodd" clip-rule="evenodd" d="M6.03063 5.07615C6.0442 5.04024 6.05752 5.00355 6.07032 4.96583C6.17948 4.64678 6.24528 4.32567 6.24528 4.01928C6.24528 3.89863 6.23092 3.77127 6.20298 3.63771C6.15885 3.42406 6.08311 3.20034 5.98466 2.97274C5.92904 2.84409 5.86976 2.72241 5.80996 2.61081C5.77418 2.54312 5.74572 2.49352 5.72875 2.46562C5.67495 2.37598 5.56501 2.35169 5.48327 2.41085C5.4018 2.47001 5.37934 2.59014 5.4334 2.67978C5.43653 2.68469 5.44254 2.69554 5.45168 2.71156C5.4676 2.73894 5.4851 2.77098 5.50416 2.80663C5.55874 2.90893 5.61358 3.02105 5.66477 3.13885C5.75277 3.34268 5.81962 3.54109 5.85749 3.72348C5.87969 3.83043 5.89118 3.92989 5.89118 4.01928C5.89118 4.27271 5.83399 4.55042 5.73867 4.82917C5.70838 4.91804 5.676 5.00071 5.64361 5.07615H6.03063Z" fill="#FEC1EE"/>
</g>
<mask id="mask7" mask-type="alpha" maskUnits="userSpaceOnUse" x="5" y="2" width="2" height="4">
<path fill-rule="evenodd" clip-rule="evenodd" d="M5.48327 2.41079C5.56501 2.35163 5.67495 2.37617 5.72874 2.46555C5.74572 2.49346 5.77392 2.54332 5.80996 2.61074C5.86976 2.72235 5.92903 2.84428 5.98466 2.97294C6.08311 3.20028 6.15884 3.42426 6.20297 3.63765C6.23065 3.77121 6.24527 3.89883 6.24527 4.01921C6.24527 4.32561 6.17947 4.64672 6.07031 4.96577C6.05725 5.00349 6.0442 5.04043 6.03062 5.07609H5.64335C5.67573 5.00091 5.70811 4.91798 5.73867 4.82937C5.83398 4.55036 5.89117 4.27265 5.89117 4.01921C5.89117 3.92983 5.87968 3.83037 5.85748 3.72341C5.81962 3.54103 5.75251 3.34262 5.6645 3.13905C5.61358 3.02125 5.55874 2.90913 5.50416 2.80656C5.4851 2.77091 5.4676 2.73888 5.45167 2.7115C5.44253 2.69548 5.43627 2.68463 5.43339 2.67972C5.37934 2.59033 5.4018 2.46995 5.48327 2.41079Z" fill="white"/>
</mask>
<g mask="url(#mask7)">
<path fill-rule="evenodd" clip-rule="evenodd" d="M0.00744629 14.1842H18.0785V-0.0333252H0.00744629V14.1842Z" fill="#2800FF"/>
</g>
<mask id="mask8" mask-type="alpha" maskUnits="userSpaceOnUse" x="0" y="10" width="18" height="4">
<path fill-rule="evenodd" clip-rule="evenodd" d="M17.7936 10.2003C17.8511 10.4442 17.8752 10.7063 17.7539 11.0063L17.7269 11.0792C17.4684 11.8504 18.1237 12.4215 17.9761 12.6868L17.9671 12.6986C17.85 12.8176 17.1187 12.5588 16.391 12.2998L16.3186 12.2741C15.6914 12.0515 15.0822 11.8383 14.8863 11.8758L14.8636 11.8805C14.4034 11.9815 13.0654 12.6033 10.3989 12.9983L10.2016 13.0253C9.54336 13.1078 8.88042 13.1183 8.25416 13.0882L8.27547 13.1371C8.43735 13.5273 8.39596 13.8839 8.39596 13.8839L8.38889 13.8859C8.35125 13.896 8.16401 13.9418 7.84182 13.9459L7.82706 13.9493C7.67145 13.9834 7.14194 14.0685 6.30058 13.8922L6.2274 13.8751C5.26452 13.6277 4.81836 12.609 4.81836 12.609C4.82379 12.6038 4.83285 12.5954 4.84735 12.5832L4.82077 12.5785C4.77985 12.5717 4.75595 12.5701 4.75072 12.5747L4.63848 12.5955C4.05608 12.6991 3.72568 12.6868 3.25649 12.6868L3.22023 12.6856C2.66872 12.6531 0.770102 11.9275 0.148682 11.151L0.152369 11.15C0.215213 11.1346 1.06117 10.9237 1.13118 10.7351L8.58737 10.7353L8.58659 10.2005L17.7936 10.2003Z" fill="white"/>
</mask>
<g mask="url(#mask8)">
<path fill-rule="evenodd" clip-rule="evenodd" d="M18.0657 14.0216H-0.00561523V10.7353H8.58715L8.58636 10.2005H18.0657V14.0216Z" fill="#5A78FF"/>
</g>
<mask id="mask9" mask-type="alpha" maskUnits="userSpaceOnUse" x="6" y="7" width="10" height="5">
<path fill-rule="evenodd" clip-rule="evenodd" d="M6.6013 7.86285L6.60565 7.86289L6.61018 7.86311L6.61563 7.86338C6.61903 7.86354 6.62486 7.86378 6.63943 7.8644L6.66512 7.86571C6.68301 7.86659 6.70245 7.8675 6.72352 7.86854L6.79289 7.87197C6.86422 7.87554 6.94124 7.87952 7.02252 7.88378L7.25391 7.89553C7.48467 7.9074 7.71265 7.91956 7.92946 7.93157L8.02867 7.93711C8.09392 7.94073 8.15734 7.94423 8.2188 7.94785L8.31487 7.95339C8.53444 7.96616 8.72149 7.97772 8.86956 7.98789L8.98724 7.99681C9.63242 8.04983 10.548 8.18784 11.26 8.32838L11.3803 8.35267C12.4964 8.58321 13.4327 8.92274 14.8791 9.55704L14.9018 9.56699C15.0365 9.62612 15.38 9.77737 15.3881 9.78102L15.4118 9.7935C15.4945 9.84503 15.5319 9.95781 15.496 10.0582L15.4847 10.0844C15.4382 10.176 15.3363 10.2176 15.2458 10.1778L15.2404 10.1755C15.1921 10.1543 14.8435 10.0003 14.7376 9.95385L14.5868 9.88801C13.1968 9.28387 12.2922 8.96596 11.1924 8.74896L11.059 8.72306C10.3359 8.58532 9.43933 8.455 8.84553 8.41415L8.78023 8.40978C8.62245 8.39934 8.42702 8.38722 8.19921 8.37411L8.10575 8.36886C8.04244 8.36532 7.97716 8.36171 7.91013 8.35809L7.69045 8.34619C7.4676 8.33421 7.2362 8.32205 7.0045 8.31004L6.95652 8.30768L6.90971 8.30513L6.95038 8.41457L6.98988 8.5273L7.0338 8.66067C7.08964 8.83768 7.13439 9.01112 7.1651 9.17728L7.17889 9.25727C7.18733 9.31001 7.19418 9.36156 7.19905 9.41185L7.20338 9.46644C7.21743 9.70996 7.17044 10.0437 7.07684 10.4555L7.04188 10.6045C7.01741 10.7051 6.99066 10.8085 6.96194 10.9141L6.92209 11.0579C6.88164 11.201 6.83953 11.3412 6.79742 11.4755L6.77846 11.536C6.76608 11.5751 6.75424 11.6115 6.7431 11.6449L6.73514 11.6699L6.72796 11.6914L6.7245 11.7016L6.72221 11.7082L6.71138 11.7346C6.66637 11.8272 6.56509 11.8709 6.47413 11.8327L6.45024 11.8208C6.36659 11.771 6.32711 11.659 6.36158 11.5581L6.36328 11.5527L6.36654 11.5434L6.37323 11.5229L6.3809 11.4992L6.39735 11.4488C6.40867 11.4137 6.42068 11.3757 6.43339 11.3352L6.47422 11.2032C6.5149 11.0695 6.55495 10.9308 6.59295 10.7909L6.62324 10.6777C6.65267 10.5654 6.67945 10.4562 6.70315 10.3512L6.72052 10.2731C6.79851 9.91394 6.83351 9.62967 6.81596 9.46016L6.80857 9.39649C6.8029 9.3533 6.79577 9.30869 6.78723 9.26305L6.76456 9.15133C6.73112 9.00026 6.68508 8.84108 6.62951 8.67843L6.59618 8.58316C6.56228 8.48916 6.52688 8.39917 6.49163 8.31469L6.4758 8.27688C6.46551 8.25266 6.45576 8.23038 6.44671 8.21006L6.43955 8.19441C6.43539 8.18526 6.43243 8.17872 6.43052 8.17493C6.36341 8.03207 6.45768 7.86285 6.6013 7.86285Z" fill="white"/>
</mask>
<g mask="url(#mask9)">
<path fill-rule="evenodd" clip-rule="evenodd" d="M6.12 12.0498H15.7314V7.62421H6.12V12.0498Z" fill="#FEC1EE"/>
</g>
<mask id="mask10" mask-type="alpha" maskUnits="userSpaceOnUse" x="6" y="7" width="10" height="4">
<path fill-rule="evenodd" clip-rule="evenodd" d="M6.61042 7.85431L6.61587 7.85459C6.61927 7.85477 6.6251 7.85508 6.63967 7.85586L6.66536 7.85722C6.68325 7.85816 6.70269 7.85913 6.72376 7.85999L6.79313 7.86354C6.86446 7.86715 6.94148 7.87097 7.02276 7.87523L7.25415 7.88699C7.48491 7.89886 7.71289 7.91101 7.9297 7.92303L8.02891 7.92845C8.09416 7.93207 8.15758 7.93569 8.21904 7.9393L8.31511 7.94485C8.53468 7.95762 8.72173 7.96917 8.8698 7.97935L8.98748 7.98823C9.63266 8.04102 10.5482 8.17906 11.2603 8.31984L11.3806 8.34415C12.4967 8.57489 13.4329 8.91395 14.8794 9.5485L14.9021 9.55841C15.0367 9.61736 15.3802 9.76884 15.3883 9.77248L15.412 9.78496C15.4947 9.83645 15.5321 9.94902 15.4962 10.0494L15.4849 10.0757C15.4384 10.1675 15.3365 10.2091 15.246 10.1693L15.2406 10.1669C15.1924 10.1455 14.8438 9.992 14.7379 9.94531L14.587 9.87948C13.197 9.27533 12.2924 8.95741 11.1926 8.74016L11.0592 8.71431C10.3362 8.57678 9.43957 8.44644 8.84577 8.40535L8.78047 8.40099C8.62269 8.3906 8.42726 8.37867 8.19945 8.36556L8.10599 8.36032C8.04268 8.35678 7.9774 8.35316 7.91037 8.34955L7.69068 8.3375C7.46784 8.32544 7.23644 8.31338 7.00474 8.30175L6.95676 8.2992L6.90995 8.29685L6.95062 8.40606L6.99012 8.51876L7.03404 8.6522C7.08988 8.82922 7.13463 9.00237 7.16534 9.16874L7.17913 9.24863C7.18757 9.30139 7.19442 9.35311 7.19929 9.40357L7.20362 9.45816C7.21767 9.70164 7.17068 10.0351 7.07708 10.4467L7.05517 10.5413C7.04008 10.6049 7.02407 10.6697 7.00735 10.7353H6.60598L6.64093 10.6011C6.66346 10.5127 6.68441 10.4263 6.70339 10.3426L6.72076 10.2645C6.79875 9.90537 6.83375 9.62087 6.8162 9.45137L6.80881 9.38781C6.80314 9.34476 6.796 9.30032 6.78747 9.25451L6.7648 9.1428C6.73136 8.99172 6.68532 8.83254 6.62975 8.66989L6.59641 8.57473C6.56252 8.48078 6.52712 8.39069 6.49187 8.3064L6.47604 8.26854C6.46575 8.24426 6.456 8.22193 6.44695 8.20178L6.43979 8.18594C6.43563 8.17672 6.43267 8.17017 6.43076 8.16638C6.36365 8.02352 6.45792 7.85405 6.60154 7.85431H6.61042Z" fill="white"/>
</mask>
<g mask="url(#mask10)">
<path fill-rule="evenodd" clip-rule="evenodd" d="M6.20837 10.9544H15.7313V7.62439H6.20837V10.9544Z" fill="#FF7698"/>
</g>
<path fill-rule="evenodd" clip-rule="evenodd" d="M5.43339 8.38038C5.43653 8.38529 5.44253 8.39588 5.45167 8.4119C5.4676 8.43903 5.4851 8.47029 5.50416 8.50542C5.55874 8.60643 5.61358 8.71726 5.66476 8.83325C5.75277 9.03424 5.81962 9.2298 5.85748 9.4096C5.87968 9.51552 5.89117 9.61317 5.89117 9.70153C5.89117 9.95134 5.83398 10.2254 5.73867 10.5006C5.70472 10.598 5.66842 10.6884 5.63238 10.7695C5.61985 10.7974 5.6081 10.8222 5.59791 10.8434C5.59191 10.8555 5.58799 10.8633 5.58616 10.8666C5.53811 10.9586 5.5684 11.0754 5.65353 11.1273C5.73893 11.1792 5.84678 11.1467 5.89509 11.0547C5.90684 11.0317 5.92669 10.9912 5.95123 10.9359C5.99197 10.8449 6.03245 10.7439 6.07031 10.6349C6.17947 10.3202 6.24528 10.0038 6.24528 9.70153C6.24528 9.58269 6.23091 9.45688 6.20297 9.32513C6.15884 9.11458 6.08311 8.8937 5.98466 8.66946C5.92904 8.54262 5.86976 8.42249 5.80996 8.31244C5.77418 8.24579 5.74572 8.19696 5.72874 8.16906C5.67495 8.08097 5.56501 8.05694 5.48327 8.11507C5.4018 8.17346 5.37934 8.29229 5.43339 8.38038Z" fill="#FEC1EE"/>
<path fill-rule="evenodd" clip-rule="evenodd" d="M6.03063 10.7353C6.0442 10.6999 6.05752 10.6638 6.07032 10.6266C6.17948 10.3116 6.24528 9.99518 6.24528 9.69292C6.24528 9.57408 6.23092 9.44853 6.20298 9.31652C6.15885 9.10597 6.08311 8.88535 5.98466 8.66085C5.92904 8.534 5.86976 8.41387 5.80996 8.30382C5.77418 8.23717 5.74572 8.18834 5.72875 8.1607C5.67495 8.07235 5.56501 8.04832 5.48327 8.10671C5.4018 8.16483 5.37934 8.28367 5.4334 8.37202C5.43653 8.37667 5.44254 8.38752 5.45168 8.40328C5.4676 8.43041 5.4851 8.46167 5.50416 8.4968C5.55874 8.59807 5.61358 8.70864 5.66477 8.82489C5.75277 9.02563 5.81962 9.22145 5.85749 9.40125C5.87969 9.50692 5.89118 9.60483 5.89118 9.69292C5.89118 9.94299 5.83399 10.2168 5.73867 10.492C5.70838 10.5793 5.676 10.6609 5.64361 10.7353H6.03063Z" fill="#FEC1EE"/>
<mask id="mask11" mask-type="alpha" maskUnits="userSpaceOnUse" x="5" y="8" width="2" height="3">
<path fill-rule="evenodd" clip-rule="evenodd" d="M5.48327 8.10671C5.56501 8.04832 5.67495 8.07235 5.72874 8.1607C5.74572 8.18834 5.77392 8.23717 5.80996 8.30382C5.86976 8.41387 5.92903 8.534 5.98466 8.66085C6.08311 8.88535 6.15884 9.10597 6.20297 9.31652C6.23065 9.44853 6.24527 9.57408 6.24527 9.69292C6.24527 9.99518 6.17947 10.3116 6.07031 10.6266C6.05725 10.6638 6.0442 10.6999 6.03062 10.7353H5.64335C5.67573 10.6609 5.70811 10.5793 5.73867 10.492C5.83398 10.2168 5.89117 9.94299 5.89117 9.69292C5.89117 9.60483 5.87968 9.50692 5.85748 9.40125C5.81962 9.22145 5.75251 9.02563 5.6645 8.82489C5.61358 8.70864 5.55874 8.59807 5.50416 8.4968C5.4851 8.46167 5.4676 8.43041 5.45167 8.40328C5.44253 8.38752 5.43627 8.37667 5.43339 8.37202C5.37934 8.28367 5.4018 8.16483 5.48327 8.10671Z" fill="white"/>
</mask>
<g mask="url(#mask11)">
<path fill-rule="evenodd" clip-rule="evenodd" d="M0.00744629 14.0216H18.0785V0H0.00744629V14.0216Z" fill="#FF7698"/>
</g>
<path fill-rule="evenodd" clip-rule="evenodd" d="M2.29968 3.65612C2.29968 3.22805 2.65039 2.8811 3.0831 2.8811C3.5158 2.8811 3.86651 3.22805 3.86651 3.65612C3.86651 4.08419 3.5158 4.43115 3.0831 4.43115C2.65039 4.43115 2.29968 4.08419 2.29968 3.65612Z" fill="black"/>
<path fill-rule="evenodd" clip-rule="evenodd" d="M2.29968 3.59429V3.58473C2.29968 3.1099 2.67755 2.72498 3.14368 2.72498C3.61007 2.72498 3.98793 3.1099 3.98793 3.58473C3.98793 4.05956 3.61007 4.44474 3.14368 4.44474C2.72612 4.44474 2.32684 4.18098 2.31169 3.72992C2.32188 4.04044 2.63368 4.26545 2.95018 4.26545C3.3095 4.26545 3.60093 3.96888 3.60093 3.60281C3.60093 3.23675 3.3095 2.93991 2.95018 2.93991C2.59372 2.93991 2.30412 3.2321 2.29968 3.59429Z" fill="white"/>
<path fill-rule="evenodd" clip-rule="evenodd" d="M2.63754 4.04679C2.51872 4.04679 2.42236 3.95121 2.42236 3.83366C2.42236 3.71612 2.51872 3.62079 2.63754 3.62079C2.75636 3.62079 2.85246 3.71612 2.85246 3.83366C2.85246 3.95121 2.75636 4.04679 2.63754 4.04679Z" fill="white"/>
<path fill-rule="evenodd" clip-rule="evenodd" d="M2.29968 9.32184C2.29968 8.89377 2.65039 8.54681 3.0831 8.54681C3.5158 8.54681 3.86651 8.89377 3.86651 9.32184C3.86651 9.7499 3.5158 10.0969 3.0831 10.0969C2.65039 10.0969 2.29968 9.7499 2.29968 9.32184Z" fill="black"/>
<path fill-rule="evenodd" clip-rule="evenodd" d="M2.29968 9.26V9.25044C2.29968 8.77561 2.67755 8.39069 3.14369 8.39069C3.61008 8.39069 3.98795 8.77561 3.98795 9.25044C3.98795 9.72527 3.61008 10.1105 3.14369 10.1105C2.72612 10.1105 2.32684 9.84669 2.3117 9.39563C2.32188 9.70615 2.63368 9.93117 2.95018 9.93117C3.30951 9.93117 3.60094 9.63459 3.60094 9.26853C3.60094 8.90246 3.30951 8.60563 2.95018 8.60563C2.59373 8.60563 2.30412 8.89781 2.29968 9.26Z" fill="white"/>
<path fill-rule="evenodd" clip-rule="evenodd" d="M2.63754 9.71245C2.51872 9.71245 2.42236 9.61686 2.42236 9.49931C2.42236 9.38177 2.51872 9.28644 2.63754 9.28644C2.75636 9.28644 2.85246 9.38177 2.85246 9.49931C2.85246 9.61686 2.75636 9.71245 2.63754 9.71245Z" fill="white"/>
</svg>
